<mxfile host="app.diagrams.net" agent="Mozilla/5.0 (Windows NT 10.0; Win64; x64) AppleWebKit/537.36 (KHTML, like Gecko) Chrome/127.0.0.0 Safari/537.36" version="24.7.6">
  <diagram name="Página-1" id="8Nb5FwKKSOWdsS6qw_k5">
    <mxGraphModel dx="1028" dy="551" grid="1" gridSize="10" guides="1" tooltips="1" connect="1" arrows="1" fold="1" page="1" pageScale="1" pageWidth="827" pageHeight="1169" math="0" shadow="0">
      <root>
        <mxCell id="0" />
        <mxCell id="1" parent="0" />
        <mxCell id="W0RgV5TRmyjMareamsaO-5" value="&lt;b&gt;Produto&lt;/b&gt;" style="swimlane;fontStyle=0;align=center;verticalAlign=top;childLayout=stackLayout;horizontal=1;startSize=55;horizontalStack=0;resizeParent=1;resizeParentMax=0;resizeLast=0;collapsible=0;marginBottom=0;html=1;whiteSpace=wrap;" vertex="1" parent="1">
          <mxGeometry width="140" height="200" as="geometry" />
        </mxCell>
        <mxCell id="W0RgV5TRmyjMareamsaO-6" value="attributes" style="text;html=1;strokeColor=none;fillColor=none;align=center;verticalAlign=middle;spacingLeft=4;spacingRight=4;overflow=hidden;rotatable=0;points=[[0,0.5],[1,0.5]];portConstraint=eastwest;whiteSpace=wrap;" vertex="1" parent="W0RgV5TRmyjMareamsaO-5">
          <mxGeometry y="55" width="140" height="20" as="geometry" />
        </mxCell>
        <mxCell id="W0RgV5TRmyjMareamsaO-7" value="- nome&lt;div&gt;- preço&lt;/div&gt;&lt;div&gt;- id&lt;/div&gt;" style="text;html=1;strokeColor=none;fillColor=none;align=left;verticalAlign=middle;spacingLeft=4;spacingRight=4;overflow=hidden;rotatable=0;points=[[0,0.5],[1,0.5]];portConstraint=eastwest;whiteSpace=wrap;" vertex="1" parent="W0RgV5TRmyjMareamsaO-5">
          <mxGeometry y="75" width="140" height="20" as="geometry" />
        </mxCell>
        <mxCell id="W0RgV5TRmyjMareamsaO-38" value="&lt;div&gt;&lt;span style=&quot;background-color: initial;&quot;&gt;- preço&lt;/span&gt;&lt;/div&gt;" style="text;html=1;strokeColor=none;fillColor=none;align=left;verticalAlign=middle;spacingLeft=4;spacingRight=4;overflow=hidden;rotatable=0;points=[[0,0.5],[1,0.5]];portConstraint=eastwest;whiteSpace=wrap;" vertex="1" parent="W0RgV5TRmyjMareamsaO-5">
          <mxGeometry y="95" width="140" height="20" as="geometry" />
        </mxCell>
        <mxCell id="W0RgV5TRmyjMareamsaO-40" value="&lt;div&gt;&lt;span style=&quot;background-color: initial;&quot;&gt;- id&lt;/span&gt;&lt;/div&gt;" style="text;html=1;strokeColor=none;fillColor=none;align=left;verticalAlign=middle;spacingLeft=4;spacingRight=4;overflow=hidden;rotatable=0;points=[[0,0.5],[1,0.5]];portConstraint=eastwest;whiteSpace=wrap;" vertex="1" parent="W0RgV5TRmyjMareamsaO-5">
          <mxGeometry y="115" width="140" height="20" as="geometry" />
        </mxCell>
        <mxCell id="W0RgV5TRmyjMareamsaO-41" value="&lt;div&gt;&lt;span style=&quot;background-color: initial;&quot;&gt;- descricao&lt;/span&gt;&lt;/div&gt;" style="text;html=1;strokeColor=none;fillColor=none;align=left;verticalAlign=middle;spacingLeft=4;spacingRight=4;overflow=hidden;rotatable=0;points=[[0,0.5],[1,0.5]];portConstraint=eastwest;whiteSpace=wrap;" vertex="1" parent="W0RgV5TRmyjMareamsaO-5">
          <mxGeometry y="135" width="140" height="20" as="geometry" />
        </mxCell>
        <mxCell id="W0RgV5TRmyjMareamsaO-10" value="" style="line;strokeWidth=1;fillColor=none;align=left;verticalAlign=middle;spacingTop=-1;spacingLeft=3;spacingRight=3;rotatable=0;labelPosition=right;points=[];portConstraint=eastwest;" vertex="1" parent="W0RgV5TRmyjMareamsaO-5">
          <mxGeometry y="155" width="140" height="5" as="geometry" />
        </mxCell>
        <mxCell id="W0RgV5TRmyjMareamsaO-11" value="operations" style="text;html=1;strokeColor=none;fillColor=none;align=center;verticalAlign=middle;spacingLeft=4;spacingRight=4;overflow=hidden;rotatable=0;points=[[0,0.5],[1,0.5]];portConstraint=eastwest;whiteSpace=wrap;" vertex="1" parent="W0RgV5TRmyjMareamsaO-5">
          <mxGeometry y="160" width="140" height="20" as="geometry" />
        </mxCell>
        <mxCell id="W0RgV5TRmyjMareamsaO-12" value="operation1" style="text;html=1;strokeColor=none;fillColor=none;align=left;verticalAlign=middle;spacingLeft=4;spacingRight=4;overflow=hidden;rotatable=0;points=[[0,0.5],[1,0.5]];portConstraint=eastwest;whiteSpace=wrap;" vertex="1" parent="W0RgV5TRmyjMareamsaO-5">
          <mxGeometry y="180" width="140" height="20" as="geometry" />
        </mxCell>
        <mxCell id="W0RgV5TRmyjMareamsaO-13" value="Pedido" style="swimlane;fontStyle=0;align=center;verticalAlign=top;childLayout=stackLayout;horizontal=1;startSize=55;horizontalStack=0;resizeParent=1;resizeParentMax=0;resizeLast=0;collapsible=0;marginBottom=0;html=1;whiteSpace=wrap;" vertex="1" parent="1">
          <mxGeometry x="530" y="160" width="140" height="263" as="geometry" />
        </mxCell>
        <mxCell id="W0RgV5TRmyjMareamsaO-14" value="attributes" style="text;html=1;strokeColor=none;fillColor=none;align=center;verticalAlign=middle;spacingLeft=4;spacingRight=4;overflow=hidden;rotatable=0;points=[[0,0.5],[1,0.5]];portConstraint=eastwest;whiteSpace=wrap;" vertex="1" parent="W0RgV5TRmyjMareamsaO-13">
          <mxGeometry y="55" width="140" height="20" as="geometry" />
        </mxCell>
        <mxCell id="W0RgV5TRmyjMareamsaO-15" value="- ItemPedido" style="text;html=1;strokeColor=none;fillColor=none;align=left;verticalAlign=middle;spacingLeft=4;spacingRight=4;overflow=hidden;rotatable=0;points=[[0,0.5],[1,0.5]];portConstraint=eastwest;whiteSpace=wrap;" vertex="1" parent="W0RgV5TRmyjMareamsaO-13">
          <mxGeometry y="75" width="140" height="20" as="geometry" />
        </mxCell>
        <mxCell id="W0RgV5TRmyjMareamsaO-42" value="- idPedido" style="text;html=1;strokeColor=none;fillColor=none;align=left;verticalAlign=middle;spacingLeft=4;spacingRight=4;overflow=hidden;rotatable=0;points=[[0,0.5],[1,0.5]];portConstraint=eastwest;whiteSpace=wrap;" vertex="1" parent="W0RgV5TRmyjMareamsaO-13">
          <mxGeometry y="95" width="140" height="20" as="geometry" />
        </mxCell>
        <mxCell id="W0RgV5TRmyjMareamsaO-43" value="- preçoTotal" style="text;html=1;strokeColor=none;fillColor=none;align=left;verticalAlign=middle;spacingLeft=4;spacingRight=4;overflow=hidden;rotatable=0;points=[[0,0.5],[1,0.5]];portConstraint=eastwest;whiteSpace=wrap;" vertex="1" parent="W0RgV5TRmyjMareamsaO-13">
          <mxGeometry y="115" width="140" height="20" as="geometry" />
        </mxCell>
        <mxCell id="W0RgV5TRmyjMareamsaO-44" value="- status" style="text;html=1;strokeColor=none;fillColor=none;align=left;verticalAlign=middle;spacingLeft=4;spacingRight=4;overflow=hidden;rotatable=0;points=[[0,0.5],[1,0.5]];portConstraint=eastwest;whiteSpace=wrap;" vertex="1" parent="W0RgV5TRmyjMareamsaO-13">
          <mxGeometry y="135" width="140" height="20" as="geometry" />
        </mxCell>
        <mxCell id="W0RgV5TRmyjMareamsaO-18" value="" style="line;strokeWidth=1;fillColor=none;align=left;verticalAlign=middle;spacingTop=-1;spacingLeft=3;spacingRight=3;rotatable=0;labelPosition=right;points=[];portConstraint=eastwest;" vertex="1" parent="W0RgV5TRmyjMareamsaO-13">
          <mxGeometry y="155" width="140" height="8" as="geometry" />
        </mxCell>
        <mxCell id="W0RgV5TRmyjMareamsaO-19" value="operations" style="text;html=1;strokeColor=none;fillColor=none;align=center;verticalAlign=middle;spacingLeft=4;spacingRight=4;overflow=hidden;rotatable=0;points=[[0,0.5],[1,0.5]];portConstraint=eastwest;whiteSpace=wrap;" vertex="1" parent="W0RgV5TRmyjMareamsaO-13">
          <mxGeometry y="163" width="140" height="20" as="geometry" />
        </mxCell>
        <mxCell id="W0RgV5TRmyjMareamsaO-20" value="+ calculoPreçoTotal()" style="text;html=1;align=left;verticalAlign=middle;spacingLeft=4;spacingRight=4;overflow=hidden;rotatable=0;points=[[0,0.5],[1,0.5]];portConstraint=eastwest;whiteSpace=wrap;" vertex="1" parent="W0RgV5TRmyjMareamsaO-13">
          <mxGeometry y="183" width="140" height="20" as="geometry" />
        </mxCell>
        <mxCell id="W0RgV5TRmyjMareamsaO-45" value="+ validador e-mail()" style="text;html=1;align=left;verticalAlign=middle;spacingLeft=4;spacingRight=4;overflow=hidden;rotatable=0;points=[[0,0.5],[1,0.5]];portConstraint=eastwest;whiteSpace=wrap;" vertex="1" parent="W0RgV5TRmyjMareamsaO-13">
          <mxGeometry y="203" width="140" height="20" as="geometry" />
        </mxCell>
        <mxCell id="W0RgV5TRmyjMareamsaO-46" value="+ validador telefone()" style="text;html=1;align=left;verticalAlign=middle;spacingLeft=4;spacingRight=4;overflow=hidden;rotatable=0;points=[[0,0.5],[1,0.5]];portConstraint=eastwest;whiteSpace=wrap;" vertex="1" parent="W0RgV5TRmyjMareamsaO-13">
          <mxGeometry y="223" width="140" height="20" as="geometry" />
        </mxCell>
        <mxCell id="W0RgV5TRmyjMareamsaO-47" value="+ validador cpf()" style="text;html=1;align=left;verticalAlign=middle;spacingLeft=4;spacingRight=4;overflow=hidden;rotatable=0;points=[[0,0.5],[1,0.5]];portConstraint=eastwest;whiteSpace=wrap;" vertex="1" parent="W0RgV5TRmyjMareamsaO-13">
          <mxGeometry y="243" width="140" height="20" as="geometry" />
        </mxCell>
        <mxCell id="W0RgV5TRmyjMareamsaO-49" value="ItemPedido" style="swimlane;fontStyle=0;align=center;verticalAlign=top;childLayout=stackLayout;horizontal=1;startSize=55;horizontalStack=0;resizeParent=1;resizeParentMax=0;resizeLast=0;collapsible=0;marginBottom=0;html=1;whiteSpace=wrap;" vertex="1" parent="1">
          <mxGeometry x="270" y="47" width="140" height="203" as="geometry" />
        </mxCell>
        <mxCell id="W0RgV5TRmyjMareamsaO-50" value="attributes" style="text;html=1;strokeColor=none;fillColor=none;align=center;verticalAlign=middle;spacingLeft=4;spacingRight=4;overflow=hidden;rotatable=0;points=[[0,0.5],[1,0.5]];portConstraint=eastwest;whiteSpace=wrap;" vertex="1" parent="W0RgV5TRmyjMareamsaO-49">
          <mxGeometry y="55" width="140" height="20" as="geometry" />
        </mxCell>
        <mxCell id="W0RgV5TRmyjMareamsaO-51" value="- nome" style="text;html=1;strokeColor=none;fillColor=none;align=left;verticalAlign=middle;spacingLeft=4;spacingRight=4;overflow=hidden;rotatable=0;points=[[0,0.5],[1,0.5]];portConstraint=eastwest;whiteSpace=wrap;" vertex="1" parent="W0RgV5TRmyjMareamsaO-49">
          <mxGeometry y="75" width="140" height="20" as="geometry" />
        </mxCell>
        <mxCell id="W0RgV5TRmyjMareamsaO-52" value="- quantidade" style="text;html=1;strokeColor=none;fillColor=none;align=left;verticalAlign=middle;spacingLeft=4;spacingRight=4;overflow=hidden;rotatable=0;points=[[0,0.5],[1,0.5]];portConstraint=eastwest;whiteSpace=wrap;" vertex="1" parent="W0RgV5TRmyjMareamsaO-49">
          <mxGeometry y="95" width="140" height="20" as="geometry" />
        </mxCell>
        <mxCell id="W0RgV5TRmyjMareamsaO-53" value="- Produto produto" style="text;html=1;strokeColor=none;fillColor=none;align=left;verticalAlign=middle;spacingLeft=4;spacingRight=4;overflow=hidden;rotatable=0;points=[[0,0.5],[1,0.5]];portConstraint=eastwest;whiteSpace=wrap;" vertex="1" parent="W0RgV5TRmyjMareamsaO-49">
          <mxGeometry y="115" width="140" height="20" as="geometry" />
        </mxCell>
        <mxCell id="W0RgV5TRmyjMareamsaO-55" value="- cpf" style="text;html=1;strokeColor=none;fillColor=none;align=left;verticalAlign=middle;spacingLeft=4;spacingRight=4;overflow=hidden;rotatable=0;points=[[0,0.5],[1,0.5]];portConstraint=eastwest;whiteSpace=wrap;" vertex="1" parent="W0RgV5TRmyjMareamsaO-49">
          <mxGeometry y="135" width="140" height="20" as="geometry" />
        </mxCell>
        <mxCell id="W0RgV5TRmyjMareamsaO-56" value="" style="line;strokeWidth=1;fillColor=none;align=left;verticalAlign=middle;spacingTop=-1;spacingLeft=3;spacingRight=3;rotatable=0;labelPosition=right;points=[];portConstraint=eastwest;" vertex="1" parent="W0RgV5TRmyjMareamsaO-49">
          <mxGeometry y="155" width="140" height="8" as="geometry" />
        </mxCell>
        <mxCell id="W0RgV5TRmyjMareamsaO-57" value="operations" style="text;html=1;strokeColor=none;fillColor=none;align=center;verticalAlign=middle;spacingLeft=4;spacingRight=4;overflow=hidden;rotatable=0;points=[[0,0.5],[1,0.5]];portConstraint=eastwest;whiteSpace=wrap;" vertex="1" parent="W0RgV5TRmyjMareamsaO-49">
          <mxGeometry y="163" width="140" height="20" as="geometry" />
        </mxCell>
        <mxCell id="W0RgV5TRmyjMareamsaO-58" value="+ validador quantidade()" style="text;html=1;align=left;verticalAlign=middle;spacingLeft=4;spacingRight=4;overflow=hidden;rotatable=0;points=[[0,0.5],[1,0.5]];portConstraint=eastwest;whiteSpace=wrap;" vertex="1" parent="W0RgV5TRmyjMareamsaO-49">
          <mxGeometry y="183" width="140" height="20" as="geometry" />
        </mxCell>
        <mxCell id="W0RgV5TRmyjMareamsaO-62" value="Cliente" style="swimlane;fontStyle=0;align=center;verticalAlign=top;childLayout=stackLayout;horizontal=1;startSize=55;horizontalStack=0;resizeParent=1;resizeParentMax=0;resizeLast=0;collapsible=0;marginBottom=0;html=1;whiteSpace=wrap;" vertex="1" parent="1">
          <mxGeometry x="810" y="200" width="140" height="323" as="geometry" />
        </mxCell>
        <mxCell id="W0RgV5TRmyjMareamsaO-63" value="attributes" style="text;html=1;strokeColor=none;fillColor=none;align=center;verticalAlign=middle;spacingLeft=4;spacingRight=4;overflow=hidden;rotatable=0;points=[[0,0.5],[1,0.5]];portConstraint=eastwest;whiteSpace=wrap;" vertex="1" parent="W0RgV5TRmyjMareamsaO-62">
          <mxGeometry y="55" width="140" height="20" as="geometry" />
        </mxCell>
        <mxCell id="W0RgV5TRmyjMareamsaO-64" value="- nome" style="text;html=1;strokeColor=none;fillColor=none;align=left;verticalAlign=middle;spacingLeft=4;spacingRight=4;overflow=hidden;rotatable=0;points=[[0,0.5],[1,0.5]];portConstraint=eastwest;whiteSpace=wrap;" vertex="1" parent="W0RgV5TRmyjMareamsaO-62">
          <mxGeometry y="75" width="140" height="20" as="geometry" />
        </mxCell>
        <mxCell id="W0RgV5TRmyjMareamsaO-65" value="- telefone" style="text;html=1;strokeColor=none;fillColor=none;align=left;verticalAlign=middle;spacingLeft=4;spacingRight=4;overflow=hidden;rotatable=0;points=[[0,0.5],[1,0.5]];portConstraint=eastwest;whiteSpace=wrap;" vertex="1" parent="W0RgV5TRmyjMareamsaO-62">
          <mxGeometry y="95" width="140" height="20" as="geometry" />
        </mxCell>
        <mxCell id="W0RgV5TRmyjMareamsaO-66" value="- e-mail" style="text;html=1;strokeColor=none;fillColor=none;align=left;verticalAlign=middle;spacingLeft=4;spacingRight=4;overflow=hidden;rotatable=0;points=[[0,0.5],[1,0.5]];portConstraint=eastwest;whiteSpace=wrap;" vertex="1" parent="W0RgV5TRmyjMareamsaO-62">
          <mxGeometry y="115" width="140" height="20" as="geometry" />
        </mxCell>
        <mxCell id="W0RgV5TRmyjMareamsaO-67" value="- endereço" style="text;html=1;strokeColor=none;fillColor=none;align=left;verticalAlign=middle;spacingLeft=4;spacingRight=4;overflow=hidden;rotatable=0;points=[[0,0.5],[1,0.5]];portConstraint=eastwest;whiteSpace=wrap;" vertex="1" parent="W0RgV5TRmyjMareamsaO-62">
          <mxGeometry y="135" width="140" height="20" as="geometry" />
        </mxCell>
        <mxCell id="W0RgV5TRmyjMareamsaO-68" value="- cpf" style="text;html=1;strokeColor=none;fillColor=none;align=left;verticalAlign=middle;spacingLeft=4;spacingRight=4;overflow=hidden;rotatable=0;points=[[0,0.5],[1,0.5]];portConstraint=eastwest;whiteSpace=wrap;" vertex="1" parent="W0RgV5TRmyjMareamsaO-62">
          <mxGeometry y="155" width="140" height="20" as="geometry" />
        </mxCell>
        <mxCell id="W0RgV5TRmyjMareamsaO-78" value="- Pedido" style="text;html=1;strokeColor=none;fillColor=none;align=left;verticalAlign=middle;spacingLeft=4;spacingRight=4;overflow=hidden;rotatable=0;points=[[0,0.5],[1,0.5]];portConstraint=eastwest;whiteSpace=wrap;" vertex="1" parent="W0RgV5TRmyjMareamsaO-62">
          <mxGeometry y="175" width="140" height="20" as="geometry" />
        </mxCell>
        <mxCell id="W0RgV5TRmyjMareamsaO-69" value="" style="line;strokeWidth=1;fillColor=none;align=left;verticalAlign=middle;spacingTop=-1;spacingLeft=3;spacingRight=3;rotatable=0;labelPosition=right;points=[];portConstraint=eastwest;" vertex="1" parent="W0RgV5TRmyjMareamsaO-62">
          <mxGeometry y="195" width="140" height="8" as="geometry" />
        </mxCell>
        <mxCell id="W0RgV5TRmyjMareamsaO-75" value="operations" style="text;html=1;strokeColor=none;fillColor=none;align=center;verticalAlign=middle;spacingLeft=4;spacingRight=4;overflow=hidden;rotatable=0;points=[[0,0.5],[1,0.5]];portConstraint=eastwest;whiteSpace=wrap;" vertex="1" parent="W0RgV5TRmyjMareamsaO-62">
          <mxGeometry y="203" width="140" height="20" as="geometry" />
        </mxCell>
        <mxCell id="W0RgV5TRmyjMareamsaO-70" value="operations" style="text;html=1;strokeColor=none;fillColor=none;align=center;verticalAlign=middle;spacingLeft=4;spacingRight=4;overflow=hidden;rotatable=0;points=[[0,0.5],[1,0.5]];portConstraint=eastwest;whiteSpace=wrap;" vertex="1" parent="W0RgV5TRmyjMareamsaO-62">
          <mxGeometry y="223" width="140" height="20" as="geometry" />
        </mxCell>
        <mxCell id="W0RgV5TRmyjMareamsaO-71" value="+ validador cpf()" style="text;html=1;align=left;verticalAlign=middle;spacingLeft=4;spacingRight=4;overflow=hidden;rotatable=0;points=[[0,0.5],[1,0.5]];portConstraint=eastwest;whiteSpace=wrap;" vertex="1" parent="W0RgV5TRmyjMareamsaO-62">
          <mxGeometry y="243" width="140" height="20" as="geometry" />
        </mxCell>
        <mxCell id="W0RgV5TRmyjMareamsaO-72" value="+ validador e-mail()" style="text;html=1;align=left;verticalAlign=middle;spacingLeft=4;spacingRight=4;overflow=hidden;rotatable=0;points=[[0,0.5],[1,0.5]];portConstraint=eastwest;whiteSpace=wrap;" vertex="1" parent="W0RgV5TRmyjMareamsaO-62">
          <mxGeometry y="263" width="140" height="20" as="geometry" />
        </mxCell>
        <mxCell id="W0RgV5TRmyjMareamsaO-73" value="+ validador telefone()" style="text;html=1;align=left;verticalAlign=middle;spacingLeft=4;spacingRight=4;overflow=hidden;rotatable=0;points=[[0,0.5],[1,0.5]];portConstraint=eastwest;whiteSpace=wrap;" vertex="1" parent="W0RgV5TRmyjMareamsaO-62">
          <mxGeometry y="283" width="140" height="20" as="geometry" />
        </mxCell>
        <mxCell id="W0RgV5TRmyjMareamsaO-74" value="+ validador cpf()" style="text;html=1;align=left;verticalAlign=middle;spacingLeft=4;spacingRight=4;overflow=hidden;rotatable=0;points=[[0,0.5],[1,0.5]];portConstraint=eastwest;whiteSpace=wrap;" vertex="1" parent="W0RgV5TRmyjMareamsaO-62">
          <mxGeometry y="303" width="140" height="20" as="geometry" />
        </mxCell>
        <mxCell id="W0RgV5TRmyjMareamsaO-76" value="" style="rounded=0;orthogonalLoop=1;jettySize=auto;html=1;entryX=1;entryY=0.5;entryDx=0;entryDy=0;exitX=0;exitY=0.5;exitDx=0;exitDy=0;edgeStyle=orthogonalEdgeStyle;" edge="1" parent="1" source="W0RgV5TRmyjMareamsaO-51" target="W0RgV5TRmyjMareamsaO-7">
          <mxGeometry relative="1" as="geometry" />
        </mxCell>
        <mxCell id="W0RgV5TRmyjMareamsaO-77" value="temUmProduto" style="edgeLabel;html=1;align=center;verticalAlign=middle;resizable=0;points=[];" vertex="1" connectable="0" parent="W0RgV5TRmyjMareamsaO-76">
          <mxGeometry x="-0.0825" y="-1" relative="1" as="geometry">
            <mxPoint as="offset" />
          </mxGeometry>
        </mxCell>
        <mxCell id="W0RgV5TRmyjMareamsaO-79" style="edgeStyle=orthogonalEdgeStyle;rounded=0;orthogonalLoop=1;jettySize=auto;html=1;exitX=0;exitY=0.5;exitDx=0;exitDy=0;entryX=0.929;entryY=0.644;entryDx=0;entryDy=0;entryPerimeter=0;" edge="1" parent="1" source="W0RgV5TRmyjMareamsaO-15" target="W0RgV5TRmyjMareamsaO-51">
          <mxGeometry relative="1" as="geometry" />
        </mxCell>
        <mxCell id="W0RgV5TRmyjMareamsaO-80" value="temUmItemPedido" style="edgeLabel;html=1;align=center;verticalAlign=middle;resizable=0;points=[];" vertex="1" connectable="0" parent="W0RgV5TRmyjMareamsaO-79">
          <mxGeometry x="-0.0914" y="3" relative="1" as="geometry">
            <mxPoint as="offset" />
          </mxGeometry>
        </mxCell>
        <mxCell id="W0RgV5TRmyjMareamsaO-81" style="edgeStyle=orthogonalEdgeStyle;rounded=0;orthogonalLoop=1;jettySize=auto;html=1;exitX=0;exitY=0.5;exitDx=0;exitDy=0;entryX=0.964;entryY=0.053;entryDx=0;entryDy=0;entryPerimeter=0;" edge="1" parent="1" source="W0RgV5TRmyjMareamsaO-66" target="W0RgV5TRmyjMareamsaO-15">
          <mxGeometry relative="1" as="geometry" />
        </mxCell>
        <mxCell id="W0RgV5TRmyjMareamsaO-82" value="temUmPedido" style="edgeLabel;html=1;align=center;verticalAlign=middle;resizable=0;points=[];" vertex="1" connectable="0" parent="W0RgV5TRmyjMareamsaO-81">
          <mxGeometry x="-0.0198" relative="1" as="geometry">
            <mxPoint as="offset" />
          </mxGeometry>
        </mxCell>
      </root>
    </mxGraphModel>
  </diagram>
</mxfile>
